<?xml version="1.0" encoding="UTF-8"?>
<svg id="Layer_1" data-name="Layer 1" xmlns="http://www.w3.org/2000/svg" viewBox="0 0 142 147.91">
  <defs>
    <style>
      .cls-1 {
        stroke: #999;
      }

      .cls-1, .cls-2, .cls-3, .cls-4, .cls-5 {
        stroke-miterlimit: 10;
      }

      .cls-1, .cls-6 {
        fill: #999;
      }

      .cls-1, .cls-3, .cls-4 {
        stroke-width: .25px;
      }

      .cls-7 {
        fill: #fff;
      }

      .cls-8 {
        fill: #c69c6d;
      }

      .cls-2 {
        fill: none;
        stroke: #a67c52;
        stroke-width: .5px;
      }

      .cls-9 {
        fill: #ccc;
      }

      .cls-10, .cls-4 {
        fill: #b3b3b3;
      }

      .cls-3, .cls-5 {
        stroke: #333;
      }

      .cls-4 {
        stroke: #b3b3b3;
      }

      .cls-5 {
        stroke-width: .12px;
      }

      .cls-11 {
        fill: #e6e6e6;
      }
    </style>
  </defs>
  <g>
    <path class="cls-8" d="M71,147.66C31.99,147.66.25,115.92.25,76.91S31.99,6.16,71,6.16s70.75,31.74,70.75,70.75-31.74,70.75-70.75,70.75Z"/>
    <path class="cls-8" d="M71,6.41c38.87,0,70.5,31.63,70.5,70.5s-31.63,70.5-70.5,70.5S.5,115.78.5,76.91,32.13,6.41,71,6.41M71,5.91C31.79,5.91,0,37.7,0,76.91s31.79,71,71,71,71-31.79,71-71S110.21,5.91,71,5.91h0Z"/>
  </g>
  <g>
    <path class="cls-7" d="M71,142.66c-36.25,0-65.75-29.5-65.75-65.75S34.75,11.16,71,11.16s65.75,29.5,65.75,65.75-29.5,65.75-65.75,65.75Z"/>
    <path class="cls-8" d="M71,11.41c36.12,0,65.5,29.38,65.5,65.5s-29.38,65.5-65.5,65.5S5.5,113.02,5.5,76.91,34.88,11.41,71,11.41M71,10.91C34.55,10.91,5,40.46,5,76.91s29.55,66,66,66,66-29.55,66-66S107.45,10.91,71,10.91h0Z"/>
  </g>
  <g>
    <rect class="cls-11" x="12.25" y="70.16" width="101.5" height="6.5"/>
    <path class="cls-10" d="M113.5,70.41v6H12.5v-6h101M114,69.91H12v7h102v-7h0Z"/>
  </g>
  <g>
    <rect class="cls-10" x="33.25" y="65.16" width="36.5" height="16.5"/>
    <path class="cls-10" d="M69.5,65.41v16h-36v-16h36M70,64.91h-37v17h37v-17h0Z"/>
  </g>
  <g>
    <polygon class="cls-10" points="40.25 81.16 47.7 81.16 43.77 101.11 40.25 105.23 40.25 81.16"/>
    <path class="cls-10" d="M47.39,81.41l-3.86,19.59-3.03,3.56v-23.14h6.89M48,80.91h-8v25l4-4.69,4-20.31h0Z"/>
  </g>
  <g>
    <path class="cls-7" d="M51,86.66c-7.03,0-12.75-5.72-12.75-12.75s5.72-12.75,12.75-12.75,12.75,5.72,12.75,12.75-5.72,12.75-12.75,12.75Z"/>
    <path class="cls-9" d="M51,61.41c6.89,0,12.5,5.61,12.5,12.5s-5.61,12.5-12.5,12.5-12.5-5.61-12.5-12.5,5.61-12.5,12.5-12.5M51,60.91c-7.18,0-13,5.82-13,13s5.82,13,13,13,13-5.82,13-13-5.82-13-13-13h0Z"/>
  </g>
  <g>
    <polygon class="cls-10" points="16.23 101.11 12.25 80.86 12.25 77.16 18.75 77.16 18.75 81.16 19.75 81.16 19.75 105.23 16.23 101.11"/>
    <path class="cls-10" d="M18.5,77.41v4h1v23.14l-3.03-3.56-3.97-20.14v-3.45h6M19,76.91h-7v4l4,20.31,4,4.69v-25h-1v-4h0Z"/>
  </g>
  <g>
    <path class="cls-10" d="M114.03,74.66v-2.5h15.93c.42,0,.76.34.76.75v.25h2.02v1.5h-18.72Z"/>
    <path class="cls-10" d="M129.97,72.41c.28,0,.51.22.51.5v.5h2.02v1h-18.22v-2h15.68M129.97,71.91h-16.18v3h19.22v-2h-2.02c0-.55-.45-1-1.01-1h0Z"/>
  </g>
  <g>
    <rect class="cls-10" x="12.25" y="65.16" width="9.5" height="4.56"/>
    <path class="cls-10" d="M21.5,65.41v4.06h-9v-4.06h9M22,64.91h-10v5.06h10v-5.06h0Z"/>
  </g>
  <g>
    <rect class="cls-10" x="17.25" y="62.39" width="4.5" height="2.5"/>
    <path class="cls-10" d="M21.5,62.64v2h-4v-2h4M22,62.14h-5v3h5v-3h0Z"/>
  </g>
  <g>
    <path class="cls-10" d="M17.23,61.89c-.1-.5-.5-.9-1-1v-7.56c.39.15.77.32,1.13.53.51.29,1.27.82,1.99,1.66.79.92,1.15,1.8,1.44,2.51.5,1.21.81,2.51.94,3.86h-4.51Z"/>
    <path class="cls-10" d="M16.48,53.7c.26.11.51.24.76.38.71.41,1.38.96,1.92,1.6.76.89,1.1,1.72,1.4,2.44.46,1.11.76,2.29.89,3.51h-4.04c-.15-.44-.5-.79-.94-.94v-7M15.97,52.98c0,.21,0,.41,0,.62v7.52c.57,0,1.02.46,1.02,1.02h5c-.14-1.85-.6-3.28-.98-4.2-.32-.77-.68-1.64-1.48-2.58-.82-.96-1.69-1.5-2.05-1.71-.58-.33-1.11-.54-1.52-.67h0Z"/>
  </g>
  <g>
    <path class="cls-10" d="M28.25,64.89v-2.75c.1-1.43.43-2.81.96-4.11.29-.71.65-1.58,1.44-2.51.72-.84,1.48-1.36,1.99-1.66.36-.21.74-.39,1.14-.53v7.56c-.51.1-.9.5-1,1h-.02v3h-4.5Z"/>
    <path class="cls-10" d="M33.53,53.7v7c-.44.15-.79.5-.94.94h-.09v3h-4v-2.46c.1-1.42.42-2.78.94-4.05.3-.73.64-1.55,1.4-2.44.55-.64,1.21-1.19,1.92-1.6.25-.14.5-.27.76-.38M34.04,52.98c-.4.13-.93.33-1.52.67-.37.21-1.23.75-2.05,1.71-.8.93-1.17,1.81-1.48,2.58-.38.92-.84,2.35-.98,4.2v3h5v-3h0c0-.57.46-1.02,1.02-1.02v-7.52c0-.21,0-.41,0-.62h0Z"/>
  </g>
  <g>
    <rect class="cls-9" x="33.25" y="65.16" width=".62" height="16.5"/>
    <path class="cls-9" d="M33.62,65.41v16h-.12v-16h.12M34.12,64.91h-1.12v17h1.12v-17h0Z"/>
  </g>
  <g>
    <polygon class="cls-9" points="17.02 102.03 16.81 97.23 19.75 97.23 19.75 105.23 17.02 102.03"/>
    <path class="cls-9" d="M19.5,97.48v7.07l-2.24-2.62-.19-4.45h2.43M20,96.98h-3.45l.22,5.14,3.23,3.78v-8.93h0Z"/>
  </g>
  <g>
    <rect class="cls-10" x="28.25" y="65.16" width="4.5" height="4.65"/>
    <path class="cls-10" d="M32.5,65.41v4.15h-4v-4.15h4M33,64.91h-5v5.15h5v-5.15h0Z"/>
  </g>
  <g>
    <path class="cls-9" d="M17.22,61.89c-.13-.49-.61-.86-1-.98v-7.6c.37.14.96.43,1.27.63,1.18.78,1.44,1.12,1.5,1.23.04.12.02.76,0,1.28-.01.37-.02.76-.02,1.13v4.31h-1.75Z"/>
    <path class="cls-9" d="M16.47,53.69c.31.14.68.33.91.48,1.04.68,1.3,1,1.37,1.09.03.18,0,.76,0,1.18-.01.37-.02.77-.02,1.14v1.46s0,2.6,0,2.6h-1.32c-.18-.41-.55-.73-.92-.9v-7.05M15.97,52.98c0,.21,0,.41,0,.62v7.52c.33,0,1.03.46,1.03,1.02h2.21c0-2.03,0-3.61,0-4.56,0-1.05.1-2.3,0-2.52-.23-.45-1.39-1.21-1.58-1.33-.41-.27-1.37-.73-1.66-.76h0Z"/>
  </g>
  <g>
    <polygon class="cls-9" points="40.26 97.23 43.2 97.23 43 102.03 40.26 105.23 40.26 97.23"/>
    <path class="cls-9" d="M42.94,97.48l-.19,4.45-2.24,2.62v-7.07h2.43M43.46,96.98h-3.45v8.93l3.23-3.78.22-5.14h0Z"/>
  </g>
  <g>
    <path class="cls-6" d="M49.52,88.06h2.98c.26,0,.47.21.47.47v1.47c0,.26-.21.47-.47.47h-2.98c-.26,0-.47-.21-.47-.47v-1.47c0-.26.21-.47.47-.47Z"/>
    <path class="cls-6" d="M52.49,88.31c.12,0,.22.1.22.22v1.47c0,.12-.1.22-.22.22h-2.98c-.12,0-.22-.1-.22-.22v-1.47c0-.12.1-.22.22-.22h2.98M52.49,87.81h-2.98c-.4,0-.72.32-.72.72v1.47c0,.4.32.72.72.72h2.98c.4,0,.72-.32.72-.72v-1.47c0-.4-.32-.72-.72-.72h0Z"/>
  </g>
  <g>
    <path class="cls-6" d="M50.25,87.62v-.5c.24.01.49.02.76.02.3,0,.57,0,.82-.02v.5h-1.58Z"/>
    <path class="cls-6" d="M52.07,86.85c-.32.02-.67.04-1.03.04-.01,0-.03,0-.04,0-.35,0-.69-.01-1-.03v1.01h2.08v-1.02h0Z"/>
  </g>
  <g>
    <rect class="cls-6" x="61.25" y="61.22" width="3.92" height="2.4" rx=".47" ry=".47"/>
    <path class="cls-6" d="M64.7,61.47c.12,0,.22.1.22.22v1.47c0,.12-.1.22-.22.22h-2.98c-.12,0-.22-.1-.22-.22v-1.47c0-.12.1-.22.22-.22h2.98M64.7,60.97h-2.98c-.4,0-.72.32-.72.72v1.47c0,.4.32.72.72.72h2.98c.4,0,.72-.32.72-.72v-1.47c0-.4-.32-.72-.72-.72h0Z"/>
  </g>
  <g>
    <rect class="cls-6" x="62.39" y="63.91" width="1.58" height=".75"/>
    <path class="cls-6" d="M63.72,64.16v.25h-1.08v-.25h1.08M64.22,63.66h-2.08v1.25h2.08v-1.25h0Z"/>
  </g>
  <line class="cls-3" x1="20" y1="76.4" x2="20" y2="74.34"/>
  <line class="cls-3" x1="25" y1="76.4" x2="25" y2="74.34"/>
  <line class="cls-3" x1="30" y1="76.4" x2="30" y2="74.34"/>
  <line class="cls-5" x1="70.08" y1="76.4" x2="70.08" y2="74.34"/>
  <line class="cls-3" x1="75" y1="76.4" x2="75" y2="74.34"/>
  <line class="cls-3" x1="80" y1="76.4" x2="80" y2="74.34"/>
  <line class="cls-3" x1="85" y1="76.4" x2="85" y2="74.34"/>
  <line class="cls-3" x1="90" y1="76.4" x2="90" y2="74.34"/>
  <line class="cls-3" x1="95" y1="76.4" x2="95" y2="74.34"/>
  <line class="cls-3" x1="100" y1="76.4" x2="100" y2="74.34"/>
  <line class="cls-3" x1="105" y1="76.4" x2="105" y2="74.34"/>
  <line class="cls-3" x1="110" y1="76.4" x2="110" y2="74.34"/>
  <line class="cls-3" x1="21" y1="76.4" x2="21" y2="75.33"/>
  <line class="cls-3" x1="22" y1="76.4" x2="22" y2="75.33"/>
  <line class="cls-3" x1="23" y1="76.4" x2="23" y2="75.33"/>
  <line class="cls-3" x1="24" y1="76.4" x2="24" y2="75.33"/>
  <line class="cls-3" x1="26" y1="76.4" x2="26" y2="75.33"/>
  <line class="cls-3" x1="27" y1="76.4" x2="27" y2="75.33"/>
  <line class="cls-3" x1="28" y1="76.4" x2="28" y2="75.33"/>
  <line class="cls-3" x1="29" y1="76.4" x2="29" y2="75.33"/>
  <line class="cls-3" x1="31" y1="76.4" x2="31" y2="75.33"/>
  <line class="cls-3" x1="32" y1="76.4" x2="32" y2="75.33"/>
  <line class="cls-5" x1="32.94" y1="76.4" x2="32.94" y2="75.33"/>
  <line class="cls-3" x1="76" y1="76.4" x2="76" y2="75.33"/>
  <line class="cls-3" x1="77" y1="76.4" x2="77" y2="75.33"/>
  <line class="cls-3" x1="78" y1="76.4" x2="78" y2="75.33"/>
  <line class="cls-3" x1="79" y1="76.4" x2="79" y2="75.33"/>
  <line class="cls-3" x1="81" y1="76.4" x2="81" y2="75.33"/>
  <line class="cls-3" x1="82" y1="76.4" x2="82" y2="75.33"/>
  <line class="cls-3" x1="83" y1="76.4" x2="83" y2="75.33"/>
  <line class="cls-3" x1="84" y1="76.4" x2="84" y2="75.33"/>
  <line class="cls-3" x1="86" y1="76.4" x2="86" y2="75.33"/>
  <line class="cls-3" x1="87" y1="76.4" x2="87" y2="75.33"/>
  <line class="cls-3" x1="88" y1="76.4" x2="88" y2="75.33"/>
  <line class="cls-3" x1="89" y1="76.4" x2="89" y2="75.33"/>
  <line class="cls-3" x1="91" y1="76.4" x2="91" y2="75.33"/>
  <line class="cls-3" x1="92" y1="76.4" x2="92" y2="75.33"/>
  <line class="cls-3" x1="93" y1="76.4" x2="93" y2="75.33"/>
  <line class="cls-3" x1="94" y1="76.4" x2="94" y2="75.33"/>
  <line class="cls-3" x1="96" y1="76.4" x2="96" y2="75.33"/>
  <line class="cls-3" x1="97" y1="76.4" x2="97" y2="75.33"/>
  <line class="cls-3" x1="98" y1="76.4" x2="98" y2="75.33"/>
  <line class="cls-3" x1="99" y1="76.4" x2="99" y2="75.33"/>
  <line class="cls-3" x1="101" y1="76.4" x2="101" y2="75.33"/>
  <line class="cls-3" x1="102" y1="76.4" x2="102" y2="75.33"/>
  <line class="cls-3" x1="103" y1="76.4" x2="103" y2="75.33"/>
  <line class="cls-3" x1="104" y1="76.4" x2="104" y2="75.33"/>
  <line class="cls-3" x1="106" y1="76.4" x2="106" y2="75.33"/>
  <line class="cls-3" x1="107" y1="76.4" x2="107" y2="75.33"/>
  <line class="cls-3" x1="108" y1="76.4" x2="108" y2="75.33"/>
  <line class="cls-3" x1="109" y1="76.4" x2="109" y2="75.33"/>
  <line class="cls-3" x1="111" y1="76.4" x2="111" y2="75.33"/>
  <line class="cls-3" x1="112" y1="76.4" x2="112" y2="75.33"/>
  <line class="cls-3" x1="113" y1="76.4" x2="113" y2="75.33"/>
  <line class="cls-3" x1="71" y1="76.4" x2="71" y2="75.33"/>
  <line class="cls-3" x1="72" y1="76.4" x2="72" y2="75.33"/>
  <line class="cls-3" x1="73" y1="76.4" x2="73" y2="75.33"/>
  <line class="cls-3" x1="74" y1="76.4" x2="74" y2="75.33"/>
  <g id="svgg">
    <path d="M45.45,73.65c.76-.85,1.82-1.9,2.22-2.2.32-.24.88-.56.83-.48-.01.02-.12.19-.24.36-1,1.51-1.7,3.43-1.78,4.89-.02.33-.01.37.03.39.1.04.17-.04.42-.51,1.64-3.1,3.01-4.93,4.37-5.83.15-.1.23-.18.23-.21,0-.09-.1-.07-.31.06-1.28.83-2.77,2.76-4.25,5.5-.34.63-.36.63-.24.05.29-1.42,1.25-3.67,2-4.66.19-.25.19-.29,0-.29-.63.02-1.69.9-3.43,2.83-2.27,2.52-3.9,3.75-4.18,3.16-.1-.21-.21-.11-.12.11.34.76,1.95-.4,4.44-3.18Z"/>
    <path d="M48.97,75.99c0-.21-.04-.27-.1-.12-.13.33.06.62.39.62.68,0,1.58-.59,4.52-2.94,2.17-1.74,3.09-2.41,3.81-2.81l.21-.12-.63.63c-.75.75-1.3,1.38-1.88,2.17-.24.32-.55.71-.69.87-.32.36-.39.46-.37.58.02.19.11.12.43-.3.33-.44.5-.6,1.22-1.18,1.18-.94,2.76-2.06,3.8-2.68.4-.24.98-.53.95-.48-.01.02-.21.26-.43.53-2.05,2.46-3.19,4.26-3.51,5.56-.29,1.17.08,1.8.87,1.44.3-.14.75-.52.71-.59-.04-.06-.08-.04-.3.14-.85.7-1.36.37-1.1-.72.32-1.32,1.86-3.77,3.85-6.13.32-.37.36-.45.26-.49-.06-.02-.02-.03-.32.07-.81.28-2.85,1.63-4.76,3.14-.26.2-.43.33-.38.28.05-.05.28-.32.53-.61.69-.8,1.34-1.5,1.84-1.98.47-.46.49-.48.4-.53-.27-.14-1.66.75-3.61,2.32-.44.36-1.18.95-1.63,1.31-2.84,2.29-4.07,2.9-4.07,2.03Z"/>
  </g>
  <path class="cls-4" d="M66.85,5.91c.42-.03.84-.05,1.27-.07.35-.01.69-.02,1.03-.03-.03-1.9-.05-3.79-.08-5.69h-2.23v5.79Z"/>
  <path class="cls-4" d="M58,6.94c2.95-.34,5.9-.69,8.85-1.03v-1.42c-2.42.25-4.9.58-7.46,1-.54.09-1.08.18-1.61.28.07.39.15.78.22,1.16Z"/>
  <path class="cls-4" d="M75.21,5.91c-.43-.03-.87-.05-1.32-.07-.31-.01-.63-.02-.93-.03,0-1.9.02-3.79.03-5.69h2.23v5.79Z"/>
  <path class="cls-4" d="M84.06,6.94c-2.95-.34-5.9-.69-8.85-1.03v-1.42c2.42.25,4.9.58,7.46,1,.54.09,1.08.18,1.61.28-.07.39-.15.78-.22,1.16Z"/>
  <rect class="cls-1" x="61.18" y=".64" width="5.41" height="3.26"/>
  <rect class="cls-1" x="69.34" y="1.81" width="3.39" height=".93"/>
  <rect class="cls-1" x="75.45" y="1.81" width="3.39" height=".93"/>
  <circle class="cls-2" cx="71.03" cy="76.91" r="68.06"/>
  <g>
    <rect class="cls-10" x="12.25" y="76.75" width="6.5" height="2.2"/>
    <path class="cls-10" d="M18.5,77v1.7h-6v-1.7h6M19,76.5h-7v2.7h7v-2.7h0Z"/>
  </g>
  <g>
    <rect class="cls-10" x="19.47" y="62.25" width="2.25" height="1.43"/>
    <path class="cls-10" d="M21.47,62.5v.93h-1.75v-.93h1.75M21.97,62h-2.75v1.93h2.75v-1.93h0Z"/>
  </g>
</svg>